<?xml version="1.0" encoding="utf-8"?>
<!-- Generator: Adobe Illustrator 19.1.0, SVG Export Plug-In . SVG Version: 6.00 Build 0)  -->
<svg version="1.1" id="Layer_1" xmlns="http://www.w3.org/2000/svg" xmlns:xlink="http://www.w3.org/1999/xlink" x="0px" y="0px"
	 viewBox="0 0 128 128" enable-background="new 0 0 128 128" xml:space="preserve">
<path id="crown1" fill="#B08712" d="M95.3,104.9c0,0-11.7-5.3-30.5-5.4s-31.9,5.4-31.9,5.4l-2.2-11.6l4.5-5.8l6.3,4.8l5.8-7l7.3,4.8
	l10.5-10.6l10.7,10.7l6.7-5.1l5.2,6.2l6.5-4.1l3.1,6.2L95.3,104.9z"/>
<path id="crown2" fill="#B08712" d="M95.1,44.5c0.3,1.2,0.5,2.5,0.5,3.8c0,7.1-5.4,12.9-12.1,12.9c-6.7,0-12.1-5.8-12.1-12.9
	c0-6.3,4.3-11.5,9.9-12.7L64.5,17.3L47.6,35.6c5.6,1.1,9.9,6.4,9.9,12.7c0,7.1-5.4,12.9-12.1,12.9s-12.1-5.8-12.1-12.9
	c0-1.3,0.2-2.6,0.5-3.8L8,34.4l21.1,50.1l5.1-6.5l6.9,5.3l5.8-8l7,5.6l10.8-12.5l11.2,11.9l7.4-4.8l5.5,7.5l6-4.6l4.5,6l21.7-50
	L95.1,44.5L95.1,44.5z"/>
</svg>
