<?xml version="1.0" encoding="utf-8"?>
<!-- Generator: Adobe Illustrator 19.1.0, SVG Export Plug-In . SVG Version: 6.00 Build 0)  -->
<svg version="1.1" id="Layer_1" xmlns="http://www.w3.org/2000/svg" xmlns:xlink="http://www.w3.org/1999/xlink" x="0px" y="0px"
	 viewBox="0 0 128 128" enable-background="new 0 0 128 128" xml:space="preserve">
<path id="firstYear" fill="#010202" d="M16.7,63l-5.8,1.3c-0.2-0.7-0.3-1.2-0.3-1.3c-0.4-1.9-0.4-3.2,0.1-4.1c0.4-0.9,1.2-1.5,2.3-2
	c1.5-0.7,4.5-1.6,9.1-2.6c3.1-0.7,5.2-1.1,6.4-1.2c1.4-0.2,2.5,0,3.3,0.4c0.8,0.4,1.3,0.9,1.6,1.6c0.4,0.7,0.6,1.5,0.9,2.4
	c0.3,1.3,0.3,2.3,0.1,3c-0.3,0.9-1.1,1.5-2.4,2.2c1.2,0,2.1,0.1,2.6,0.3c0.5,0.2,1,0.7,1.4,1.3c0.3,0.5,0.5,1.4,0.9,2.5
	c0.4,1.5,0.4,2.8,0,3.6s-1.1,1.5-2.2,2.2c-1.5,0.8-5.1,1.9-11,3.1c-2.3,0.5-4.1,0.8-5.2,0.9c-1.5,0.1-2.7-0.2-3.5-0.5
	c-0.8-0.5-1.3-1.1-1.7-2.1c-0.3-0.8-0.6-2-1-3.6l5.8-1.3c0.1,0.2,0.1,0.3,0.1,0.4c0.2,0.9,0.4,1.4,0.6,1.6c0.2,0.2,0.4,0.3,0.7,0.4
	c0.3,0,0.7,0,1.4-0.2c0.5-0.1,1.8-0.4,4-0.9c2.6-0.6,4-1,4.3-1.2c0.9-0.2,1.3-0.6,1.5-1c0.1-0.2,0.1-0.6,0-1.1
	c-0.2-0.9-0.6-1.2-1.2-1.3c-0.5,0-1.9,0.2-4.4,0.8l-3.6,0.8l-1-4.3l4.6-1c1.6-0.4,2.7-0.7,3-1.1c0.4-0.3,0.5-0.9,0.3-1.5
	c-0.2-0.8-0.5-1.2-1.1-1.2c-0.5-0.1-2.1,0.2-4.6,0.8c-3.1,0.7-4.9,1.2-5.5,1.4c-0.5,0.2-0.9,0.6-0.8,1.2
	C16.4,61.7,16.6,62.2,16.7,63L16.7,63z M46.5,58.2l-6,0.4c-0.1-0.7-0.1-1.2-0.1-1.3c-0.1-1.9,0.2-3.3,0.8-4c0.5-0.8,1.4-1.3,2.6-1.6
	c1.5-0.5,4.7-0.9,9.4-1.2c3.1-0.2,5.3-0.2,6.6-0.2c1.4,0.1,2.4,0.4,3.1,0.9c0.7,0.5,1.2,1.1,1.4,1.9c0.2,0.8,0.4,1.5,0.5,2.5
	c0.1,1.3-0.1,2.3-0.4,2.9c-0.4,0.8-1.3,1.4-2.7,1.8c1.2,0.2,2,0.5,2.5,0.7c0.5,0.3,0.9,0.9,1.2,1.5c0.2,0.6,0.3,1.5,0.4,2.6
	c0.1,1.6-0.1,2.8-0.6,3.6c-0.5,0.8-1.3,1.4-2.5,1.8c-1.5,0.5-5.3,1-11.3,1.4c-2.4,0.2-4.2,0.2-5.3,0c-1.5-0.2-2.6-0.5-3.3-1.1
	c-0.7-0.5-1.1-1.3-1.3-2.3c-0.2-0.9-0.3-2.1-0.4-3.7l6-0.4c0,0.2,0,0.3,0,0.4c0.1,0.9,0.2,1.5,0.3,1.7c0.2,0.2,0.4,0.4,0.6,0.5
	s0.7,0.1,1.4,0.1c0.5,0,1.9-0.1,4.1-0.2c2.6-0.2,4.2-0.4,4.5-0.5c0.9-0.2,1.4-0.4,1.6-0.8c0.2-0.2,0.2-0.6,0.2-1.1
	c-0.1-0.9-0.4-1.3-1-1.5c-0.5-0.1-2-0.1-4.5,0.1l-3.6,0.2l-0.3-4.4l4.7-0.3c1.7-0.1,2.8-0.3,3.2-0.6c0.4-0.3,0.6-0.8,0.5-1.4
	c-0.1-0.8-0.3-1.2-0.9-1.4c-0.5-0.2-2.1-0.2-4.6,0c-3.2,0.2-5,0.4-5.7,0.5c-0.6,0.2-0.9,0.5-0.9,1.1C46.5,56.7,46.5,57.2,46.5,58.2
	L46.5,58.2z M83.1,50.3c3.9,0.2,6.7,0.5,8.3,0.9c1.9,0.4,3.1,1.2,3.7,2.6c0.4,0.9,0.5,2,0.5,3.6c0,0.5-0.1,1.9-0.2,4.2
	c-0.2,2.8-0.3,4.6-0.4,5.2c-0.2,1.5-0.8,2.7-1.5,3.4c-0.9,0.8-1.9,1.2-3.3,1.3c-1.6,0.2-4.4,0.1-8.4-0.1c-4-0.2-6.7-0.5-8.3-0.9
	c-1.9-0.4-3.1-1.2-3.7-2.6c-0.4-0.9-0.5-2.1-0.5-3.6c0-0.5,0.1-1.9,0.2-4.1c0.2-2.9,0.3-4.6,0.4-5.3c0.2-1.5,0.8-2.7,1.5-3.4
	c0.9-0.8,1.9-1.2,3.3-1.3C76.4,50,79.1,50,83.1,50.3L83.1,50.3z M82.4,55.6c-2.9-0.2-4.6-0.1-5.3,0.2c-0.5,0.2-0.8,0.8-1,1.5
	C76,58,75.9,59,75.8,60.3c-0.1,1.8-0.1,3,0.2,3.7c0.2,0.6,0.5,1,1.2,1.2c0.5,0.2,1.2,0.3,2.2,0.4l2.4,0.2c2.6,0.1,4,0.2,4.4,0.2
	c0.7-0.1,1.2-0.2,1.5-0.3c0.4-0.2,0.6-0.5,0.8-0.9c0.2-0.6,0.5-1.9,0.5-3.6c0.1-1.8,0.1-3-0.2-3.6c-0.2-0.6-0.5-1-1.2-1.2
	C87.2,56,85.3,55.8,82.4,55.6L82.4,55.6z M109.3,53.5l9.8,1.9l-4,20.3l-6.2-1.2l2.9-15l-1.6-0.3l-7,3.9l-2.6-4.6L109.3,53.5
	L109.3,53.5z"/>
</svg>
