<?xml version="1.0" encoding="utf-8"?>
<!-- Generator: Adobe Illustrator 19.1.0, SVG Export Plug-In . SVG Version: 6.00 Build 0)  -->
<svg version="1.1" id="Layer_1" xmlns="http://www.w3.org/2000/svg" xmlns:xlink="http://www.w3.org/1999/xlink" x="0px" y="0px"
	 viewBox="0 0 128 128" enable-background="new 0 0 128 128" xml:space="preserve">
<path id="codeRed" fill="#E63B11" d="M54.5,49.7c-14.7,0-26.6,11.9-26.6,26.6l0,0c0,14.7,11.9,26.6,26.6,26.6S81.1,91,81.1,76.3
	C81.2,61.7,69.2,49.7,54.5,49.7L54.5,49.7z M54.5,58.2c10.1,0,18.2,8.1,18.2,18.2l0,0c0,10.1-8.1,18.2-18.2,18.2
	s-18.2-8.1-18.2-18.2C36.4,66.3,44.5,58.2,54.5,58.2L54.5,58.2z M82.8,25.8c-8.1,0-14.7,6.6-14.7,14.7l0,0c0,8.1,6.6,14.7,14.7,14.7
	s14.7-6.6,14.7-14.7S90.9,25.8,82.8,25.8L82.8,25.8z M82.8,30.4c5.5,0,9.9,4.4,9.9,9.9l0,0c0,5.5-4.4,9.9-9.9,9.9
	c-5.5,0-9.9-4.4-9.9-9.9C72.7,35,77.2,30.4,82.8,30.4L82.8,30.4z M86.8,113v2.3H74c0-0.5,0.1-1.1,0.3-1.6c0.3-0.9,0.9-1.7,1.5-2.6
	c0.8-0.9,1.7-1.8,3.1-2.9c2.1-1.7,3.6-3.1,4.2-4.1c0.6-1,1.1-1.9,1.1-2.8c0-1-0.3-1.7-1-2.4c-0.6-0.6-1.5-1-2.6-1
	c-1.2,0-2.1,0.3-2.7,1.1c-0.6,0.8-1.1,1.6-1.1,2.8l-2.5-0.2c0.2-1.8,0.8-3.2,1.8-4.2c1.1-1,2.6-1.4,4.4-1.4s3.4,0.5,4.4,1.5
	c1.1,1.1,1.6,2.3,1.6,3.8c0,0.8-0.1,1.5-0.4,2.3c-0.3,0.8-0.9,1.5-1.6,2.4c-0.8,0.9-1.9,1.9-3.7,3.4c-1.4,1.2-2.4,2.1-2.7,2.5
	c-0.4,0.4-0.8,0.9-1,1.3L86.8,113L86.8,113z M66.7,12.7c-4.3,0-7.9,3.6-7.9,7.9l0,0c0,4.3,3.6,7.9,7.9,7.9s7.9-3.6,7.9-7.9
	C74.6,16.2,71.1,12.7,66.7,12.7L66.7,12.7z M66.7,15.2c3,0,5.4,2.4,5.4,5.4l0,0c0,3-2.4,5.4-5.4,5.4c-3,0-5.4-2.4-5.4-5.4
	S63.7,15.2,66.7,15.2L66.7,15.2z"/>
</svg>
