<?xml version="1.0" encoding="utf-8"?>
<!-- Generator: Adobe Illustrator 19.1.0, SVG Export Plug-In . SVG Version: 6.00 Build 0)  -->
<svg version="1.1" id="Layer_1" xmlns="http://www.w3.org/2000/svg" xmlns:xlink="http://www.w3.org/1999/xlink" x="0px" y="0px"
	 viewBox="0 0 128 128" enable-background="new 0 0 128 128" xml:space="preserve">
<path id="dispatch" fill="#010202" d="M71.3,95.9L45,55.6c0,0,6.5-6.6,21-12.5s20.5-5.9,20.5-5.9l10.2,46.8l29.8-0.4
	c0,0-17.7,3.6-37.7,14.2c-19.9,10.5-36.5,23.7-36.5,23.7L71.3,95.9z M50.1,78.4c0.9-0.7,1.2-1.9,0.5-2.8L36,53.2
	c1.8-1.5,5.4-4.4,11.2-8c8.5-5.3,16.8-8,16.8-8c1.1-0.4,1.6-1.5,1.3-2.6c-0.4-1.1-1.5-1.6-2.6-1.3c-0.4,0.1-8.9,2.8-17.8,8.4
	S32,51.3,31.9,51.5c-0.7,0.7-0.8,1.8-0.3,2.6l15.6,23.9c0.4,0.5,1.1,0.9,1.8,0.9C49.3,78.8,49.7,78.7,50.1,78.4z M44.8,89.5
	c0.9-0.7,1.2-1.9,0.5-2.8l-24.1-36c2.7-2.4,9.6-8.1,19.1-13.7C52.8,29.5,65.9,25,66,25c1.1-0.4,1.6-1.5,1.3-2.6
	c-0.4-1.1-1.5-1.6-2.6-1.3c-0.5,0.1-13.6,4.6-26.4,12.3c-12.7,7.7-20.8,15.1-21,15.4c-0.7,0.7-0.8,1.8-0.3,2.6l25.1,37.6
	c0.4,0.5,1.1,0.9,1.6,0.9C44,89.9,44.4,89.7,44.8,89.5z M43.1,105.6c0.9-0.7,1.2-1.9,0.5-2.8L6.2,47.7c3.8-3.4,15.5-13.1,29.4-21
	c16.8-9.6,36.3-16.2,36.5-16.2c1.1-0.4,1.6-1.5,1.2-2.6c-0.4-1.1-1.5-1.6-2.6-1.2c-0.1,0-19.9,6.7-37.2,16.6S2.3,45.8,2.1,45.9
	c-0.8,0.7-0.8,1.8-0.3,2.7l38.5,56.6c0.4,0.5,1.1,0.9,1.6,0.9C42.4,106.1,42.8,105.9,43.1,105.6z"/>
</svg>
