<?xml version="1.0" encoding="utf-8"?>
<!-- Generator: Adobe Illustrator 19.1.0, SVG Export Plug-In . SVG Version: 6.00 Build 0)  -->
<svg version="1.1" id="Layer_1" xmlns="http://www.w3.org/2000/svg" xmlns:xlink="http://www.w3.org/1999/xlink" x="0px" y="0px"
	 viewBox="0 0 128 128" enable-background="new 0 0 128 128" xml:space="preserve">
<path id="laurel" fill="#B08711" d="M88.7,24.9C88.7,24.9,88.7,24.9,88.7,24.9c0.1,0.8,1.2,1.2,1.5,1.9c0.5,0.5,1.3,1.5,1.9,2.3
	c0.5,0.8,1.1,1.5,1.2,1.6c0.1,0.2,0.6,0.7,1,1.1c0.8,1,2.8,3,4.1,4c0.5,0.4,1.1,1,1.4,1.2c0.7,0.6,0.9,0.5,0.6-0.1
	c-0.1-0.2-0.3-0.8-0.4-1.3c-0.2-0.6-0.4-1.2-0.4-1.3c-0.3-1-0.7-2-1.3-2.9c-0.3-0.6-0.7-1.2-1.1-1.7c-0.5-0.8-1.4-1.4-2.1-2
	c-1.7-1.2-3.6-2-5.6-2.7C89.1,25,88.8,24.9,88.7,24.9z M38.2,25.5c-1.3,0-2.5,1-3.6,1.5c-1.6,0.8-2.6,1.4-3.7,2.6
	c-1,1-2.6,3.4-2.7,4.2c-0.1,0.6-0.6,2.3-0.9,2.9c-0.1,0.3-0.3,0.8-0.3,1c-0.2,0.6,0.1,0.5,1-0.3c0.4-0.4,1-0.9,1.4-1.2
	c0.3-0.3,0.8-0.6,1-0.8c0.2-0.2,0.7-0.7,1.2-1.2c0.5-0.4,1.2-1.3,1.6-1.9c0.4-0.6,1.2-1.7,1.8-2.4c0.7-1,1.4-2,2.3-2.8
	c0.7-0.8,1.3-1.4,1.3-1.5C38.4,25.5,38.3,25.5,38.2,25.5L38.2,25.5z M97.7,29.3l0.8,0.8c0.4,0.5,0.8,0.9,0.9,0.9
	c0.8,1.1,1.2,2.3,1.5,3.6c0.1,0.4,0.4,1.3,0.5,1.9s0.4,1.6,0.6,2.3c0.5,1.9,0.5,1.9,0.4,1.9c-0.1,0-0.4-0.3-0.7-0.6
	c-1.1-1.3-1.4-1.6-3.5-3c-0.7-0.5-1.4-1-1.5-1.1s-0.6-0.4-0.9-0.6c-0.6-0.3-0.9-0.7-2-2.2l-0.6-0.9l0.1,0.9c0.1,1,0.4,1.8,1.2,3.4
	c0.5,1.1,2.7,3.5,4.2,4.6c2.7,2,5.2,4.4,5.7,5.5c0.2,0.3,0.3,0.6,0.4,0.5s0.1-2.3,0.1-5.1c0-5.3-0.1-5.9-1-7.7
	c-1.2-2.3-3.8-4.7-5.7-5.1L97.7,29.3L97.7,29.3z M29.1,30c-0.6,0-2.3,1-3.3,2c-1.9,1.9-2.6,3.1-3,5.2c-0.4,2.4-0.5,3.2-0.2,5.6
	c0.1,1.3,0.2,2.9,0.2,3.7c-0.1,0.9,0,1.3,0.1,1.3c0.1,0,0.2-0.1,0.3-0.3c0.4-1.1,2.4-3.3,4.2-4.6c3-2.2,5.3-4.9,6.2-7.4
	c0.6-1.6,0.7-2.3,0.4-2.2c-0.1,0-0.4,0.3-0.6,0.6c-0.4,0.7-1.5,1.8-3.5,3.3c-1.8,1.4-3.8,2.7-5,4.8c-0.5,1.2-0.4,0.4,0.2-1.2
	c0.3-0.9,0.7-2.3,0.9-3c0.4-2.1,0.8-3.4,1.1-4.2c0.4-1.1,1.3-2.5,1.9-2.9c0.2-0.2,0.4-0.4,0.4-0.4C29.3,30.1,29.2,30,29.1,30
	L29.1,30z M105.3,35.6c-0.2,0-0.1,0.4,0.2,1c0.1,0.2,0.3,0.8,0.5,1.4c0.3,0.9,0.3,1.4,0.1,4c-0.1,1.6-0.2,4.6-0.2,6.6
	c0,2.3-0.1,3.5-0.1,3.1c-0.4-1.6-0.6-2.1-1.3-3.2c-0.4-0.7-1.4-1.7-2.2-2.4c-2-1.8-4-3.7-4.3-4.3c-0.2-0.3-0.4-0.4-0.5-0.3
	c-0.2,0.2,0.3,2,0.7,2.9c0.5,1.3,0.9,2.5,1.7,3.6c1.3,2,2.9,3.8,4.2,5.9c0.7,1.1,1.4,2.6,1.8,3.9c0.2,0.6,0.4,1.1,0.4,1.1
	c1.1-2.2,1.3-5,2.1-7.2c1.3-2.9,1-8.8-0.5-11.9C107.4,38.2,106.5,36.8,105.3,35.6C105.3,35.6,105.3,35.6,105.3,35.6L105.3,35.6z
	 M22.1,36.3c-0.2,0.1-1,0.9-1.6,2c-0.6,1.1-1.2,2.2-1.7,3.4c0,0.2-0.1,0.7-0.3,1c-0.5,3.2-0.6,6.6,0.7,9.6c0.2,0.6,0.6,1.7,0.9,2.5
	c0.3,0.8,0.6,1.7,0.6,1.9c0.1,0.4,0.3,1.2,0.3,1.4c0,0,0.1,0.3,0.2,0.7l0.1,0.6l0.2-0.5c0.1-0.3,0.3-0.9,0.4-1.3
	c0.4-1.4,1.7-3.4,2.5-4.5c0.8-1.1,1.5-2.2,1.6-2.4c0.8-1,1.6-2.1,2.1-3.3c0-0.1,0.2-0.6,0.5-1.2c0.9-1.8,1.3-3.9,0.9-3.9
	c-0.1,0-0.5,0.4-0.9,1c-0.4,0.5-0.8,1-0.9,1c-2.8,2.1-5.5,5-6.2,8.5c-0.2,1.4-0.3,0.4-0.1-1.6c0.2-2.1,0.1-3.9-0.4-7.4
	c-0.4-2.6-0.1-5,0.6-6.6C22.2,36.5,22.2,36.3,22.1,36.3z M110.6,48.2c-0.1,0-0.1,0.5-0.2,1.7c-0.2,2.4-0.8,4.7-1.8,6.9
	c-1,2.1-1.9,4.3-2.3,6.6c-0.2,1.1-0.3,0.7-0.3-1c0-1.6-0.2-2.3-0.8-3.5c-0.4-0.8-0.6-1.7-1.2-2.4c-1-1.4-1.8-3-2.6-4.5
	c-0.2-0.5-0.4-1-0.4-1.1c0-0.4-0.3-0.2-0.4,0.2c-0.2,0.8,0.1,3.4,0.9,6.5c0.4,1.9,1.4,5.3,2,6.9c0.5,1.5,0.7,3,0.6,4.8
	c-0.1,1.9,0,2.2,0.6,1.3c0.2-0.3,1.4-1.9,2.7-3.6c1.3-1.7,2.5-3.5,2.7-3.9c2.2-4.4,2.5-10.9,0.8-14.7
	C110.7,48.3,110.7,48.2,110.6,48.2L110.6,48.2z M17,49c-0.4,0.4-1.1,4.2-1.1,5.9c0,1.6,0.3,4,0.6,5.1c1,3.3,2.5,6.2,5,8.7
	c0.7,0.9,1.5,2,1.7,2.4c0.7,1.2,0.8,1,0.8-1.8c0-1.8,0.2-3.5,0.9-5.2c0.1-0.5,0.4-1.3,0.5-1.8c0.1-0.5,0.4-1.3,0.5-1.9
	c0.1-0.6,0.4-1.4,0.5-1.9c0.3-1.1,0.2-2.2,0.5-3.3c0.3-1.1,0.4-4.2,0.1-4.2c-1.3,1.4-4.1,8.2-4.4,8.7c-0.7,1.9-0.8,2.6-0.7,4.4
	c0.1,2-0.1,2.2-0.4,0.4c-0.4-2.3-0.9-4-1.6-5.4c-0.2-0.5-0.4-0.9-0.4-1c0-0.1-0.2-0.6-0.5-1.2c-0.3-0.6-0.5-1.2-0.5-1.2
	c0-0.1-0.1-0.4-0.2-0.7c-0.6-1.2-0.8-2.4-0.9-4C17.1,49.7,17.1,48.9,17,49L17,49z M101.3,61c-0.7,1.3-0.9,2.9-1.4,4.3
	c-0.2,1.3-0.9,7-0.9,8c0,1.8-1,6.6-1.6,7.6c-0.5,0.9-0.6,1.2-0.5,1.3c1.9-1.1,3.7-2.3,5.4-3.5c0.5-0.3,1-0.7,1.6-1
	c0.4-0.3,0.7-0.5,0.8-0.5c2.9-2.3,5.4-5.1,6.6-8.6c0.7-2.1,1.1-5.5,0.7-6.5c-0.1-0.4-0.4,0-0.4,0.6c0,0.5-0.9,2.7-1.2,3.1
	c0,0-0.3,0.4-0.6,0.9c-0.3,0.4-1.4,1.7-2.4,2.8c-1.1,1.1-2.2,2.4-2.6,2.8c-0.7,0.7-1.2,1.4-1.7,2.2c-0.4,0.5-1.1,1.5-1.1,1.6
	c-0.6,0.7-0.9,1.2-0.9,1.2c0,0,0.2-0.4,0.6-1.2c0.4-0.9,0.8-2,1-3.5c0.2-1.5,0.1-2.8-0.4-5.6c-0.4-2.2-0.6-3.5-0.6-4.7
	C101.4,61.5,101.4,61,101.3,61L101.3,61z M26.7,62.2c-0.1,0-0.2,0.2-0.2,0.6c0,0.7-0.5,3.8-0.9,5.1c-0.1,0.5-0.2,1.9-0.2,3.5
	c0,1.8,0,3.7,1,5.3c0.2,0.4,0.4,0.7,0.4,0.8c-0.8-0.7-1.2-1.9-1.9-2.7c-0.3-0.4-1-1.3-1.6-1.9c-1.2-1.3-4-4.3-4.6-4.8
	c-0.2-0.2-0.4-0.4-0.4-0.5c0-0.1-0.2-0.4-0.5-0.7c-0.7-0.8-1.4-2.5-1.5-3.3c0-0.3-0.1-0.7-0.2-0.9c-0.3-0.5-0.2,3.1,0.1,4.7
	c0.3,1.7,0.6,2.4,1.5,4.2c0.9,1.7,2.4,3.5,3.7,4.5c0.5,0.4,1,0.8,1,0.9c1.8,1.3,3.6,2.6,5.4,3.8c0.1,0,0.9,0.5,1.7,1
	c2,1.4,2,1.3,1.3-0.1c-0.2-0.5-0.5-1.2-0.7-1.5c-0.5-1.2-1.1-4.2-1.3-6.9c-0.3-3.9-1-8.3-1.6-10.2C27,62.6,26.8,62.2,26.7,62.2
	L26.7,62.2z M98,71C98,71,97.9,71,98,71c-0.2,0-0.4,0.3-0.7,0.7c-0.3,0.5-0.7,1.1-1,1.3c-1.1,1.6-2.2,3.3-2.9,5.1
	c0,0.1-0.1,0.3-0.2,0.5c-0.1,0.2-0.5,1.2-0.9,2.4c-0.8,2.5-1.2,3.5-1.4,3.9c-0.1,0.2-0.3,0.7-0.5,1.1c-0.6,1.3-1.4,2.5-2.4,3.4
	c-0.3,0.3-0.6,0.6-0.6,0.7c0,0.1,0.7,0.1,1-0.1c0.4-0.2,2.5-0.7,3.8-0.9c2.4-0.3,3.3-0.6,5.6-1.4c1.5-0.6,4.5-2.6,6.1-4.2
	c1.4-1.4,2.7-3.2,3.5-4.9c0.5-1.1,1.3-3.6,1.1-3.8c0,0-0.2,0.2-0.4,0.6c-0.6,1.1-0.7,1.3-1.7,2.4c-0.9,1-2.5,2.3-3.1,2.6
	c-0.1,0.1-0.5,0.3-0.8,0.4s-1.1,0.6-1.8,1c-0.7,0.3-1.4,0.7-1.6,0.8c-0.1,0.1-0.7,0.4-1.2,0.6c-1.8,1-3.6,2.1-5.2,3.5
	c-0.3,0.3-0.7,0.6-0.7,0.6c-0.1,0,0.5-0.7,0.9-1.1c1.5-1.8,2.6-3.8,3.1-6.1c0.1-0.7,0.4-2.1,0.5-3.1c0.4-2.5,0.8-4.1,1.1-4.9
	C98.1,71.4,98.1,71.1,98,71C98,71,98,71,98,71L98,71z M29.9,71.5c-0.4,0,0.7,2.4,0.6,3c0.6,2.6,0.7,3.2,0.7,3.7
	c0,1.2,1.2,5.2,1.7,5.7c0.6,1.1,1.1,2,2.1,2.7l1.3,1.2l-1.1-0.7c-0.6-0.4-1.2-0.8-1.3-1c-1.7-1-3.2-2.3-5-3.1
	c-5.5-2.5-7.6-4.1-9.4-7c-0.4-0.7-0.5-0.8-0.4-0.3c0.1,0.3,0.1,0.8,0.2,1c1,2.9,2.6,5.4,4.9,7.5c0.5,0.4,1.1,0.9,1.3,1.1
	c2.3,1.8,5.1,3.1,8,3.6c1.1,0.2,2.5,0.4,3,0.5c0.3,0.1,4.2,1.1,3.8,0.5c-0.5,0-2.2-2.3-3.1-4.1c-0.2-0.4-0.4-0.9-0.5-1.1
	c-0.2-0.4-0.5-1.2-1.4-3.8c-0.9-2.8-2.2-5.3-3.3-6.8c-0.1-0.1-0.5-0.7-1-1.3c-0.5-0.6-0.9-1.2-0.9-1.3C30,71.6,29.9,71.5,29.9,71.5
	L29.9,71.5z M91.5,80.9c-0.3,0-1.7,1-2.6,1.9c-0.5,0.5-1.2,1.1-1.6,1.4c-0.4,0.3-1.8,1.7-3.2,3.1c-2.4,2.3-4.9,4.3-8.3,4.8
	c-0.2,0-0.5,0.1-0.5,0.2c-0.1,0.2,0.3,0.4,1,0.4c0.5,0,2.1,0.3,3.5,0.7c0.4,0.1,1,0.2,1.4,0.3c0.4,0.1,1.4,0.3,2.3,0.5
	c3.2,0.7,6.6,0.9,9.7-0.2c2.7-0.9,5.2-2.6,7-4.8c0.6-0.7,1.8-2.6,1.5-2.5c-0.1,0-0.6,0.4-1.1,0.9c-1,0.9-1.4,1.2-2,1.5
	c-0.2,0.1-0.7,0.3-1.1,0.5c-1.1,0.5-3.4,1-6.8,1.3c-2.8,0.3-5.5,0.8-8.3,0.9c1.5-0.4,2.9-1.2,4.2-2.1c0.6-0.5,2.1-2.8,2.6-3.9
	c0.2-0.3,0.5-1.1,0.8-1.6c0.3-0.6,0.5-1.1,0.5-1.1c0,0,0.3-0.5,0.6-1C91.3,81.4,91.6,80.9,91.5,80.9C91.5,80.9,91.5,80.9,91.5,80.9
	L91.5,80.9z M36.4,81.3c-0.2,0,0,0.3,0.3,0.9c0.7,1.1,0.8,1.3,1.8,3.2c1.2,2.4,2,3.6,2.9,4.4c0.9,0.8,2.4,1.7,3.3,1.9
	c0.3,0.1,0.7,0.3,0.7,0.3s-0.9,0-1.3-0.1c-0.8-0.1-5.9-0.7-8.6-0.9c-3.4-0.2-6.3-1.3-8.2-2.9c-1-0.9-1.4-1-0.8-0.1
	c0.2,0.3,0.6,0.8,0.8,1.1c1.6,2,3.8,3.8,6.1,4.7c0.2,0.2,1.2,0.5,2.6,0.9c1.5,0.4,4.3,0.4,6.8,0.1c1-0.1,1.9-0.3,2-0.4
	c0.1-0.1,0.5-0.2,1-0.2c0.4-0.1,1.4-0.3,2.1-0.5c0.7-0.2,2.1-0.5,3.1-0.8l1.8-0.4l-0.9-0.2c-0.5-0.1-1.1-0.3-1.4-0.5
	c-1.5-0.6-3.1-1-4.4-2.1c-0.3-0.2-1.3-1.1-2.2-2c-2.3-2.2-4.6-4.3-5.7-5.2C37.2,81.7,36.6,81.2,36.4,81.3L36.4,81.3z M69.2,92.2
	c-0.9,0-2,0.1-3,0.3c-0.2,0-0.7,0.1-1.1,0.2c-1.1,0.3-1.3,0.4-2,0.1c-0.5-0.2-1.3-0.4-4.1-0.4c-1.6,0-3.3,0.1-4.8,0.7
	c-1,0.2-1.8,0.6-2.8,0.9c-0.6,0.2-1.6,0.6-2.1,0.8c-0.6,0.2-1.6,0.6-2.2,0.9c-1.5,0.7-3.5,1.2-5.4,1.3c-1.9,0.1-4-0.3-5.8-1.1
	c-1.4-0.6-1.4-0.7-1.4-0.4c1.6,1.9,3.7,3.1,5.9,4c0.7,0.4,3.9,0.9,4.9,0.7c1.1-0.2,3.2-0.6,3.6-0.7c1.5-0.6,2.1-0.9,3.4-1.6
	c1.2-0.7,2.3-1.5,3.4-2.3c1.9-1.4,4.4-2.3,5.7-1.9c0.4,0.1,0.4,0.2-1.1,0.9c-2.1,1-3.6,2.1-5.7,3.8c-2.1,1.7-3.4,3-3.4,3.2
	c0,0.1,0.4,0.5,0.9,0.9c0.5,0.4,1,0.7,1.1,0.7c0.1,0,0.4-0.3,0.7-0.6c0.9-1.2,4.6-4.7,5.6-5.2c0.9-0.6,1.7-1.4,2.7-1.8
	c0.4-0.2,0.8-0.4,0.9-0.6c0.5-0.5,2.1,0,3.7,1.2c0.2,0.2,0.8,0.6,1.1,0.9c1.2,0.9,2,1.6,2.8,2.3c1,0.9,1.8,1.9,2.8,2.7
	c0.7,0.7,1.1,1,1.3,1c0.4-0.1,1.8-1.5,1.7-1.8c-0.2-0.5-2.9-2.7-5.1-4.2c-0.8-0.5-1.5-1-1.6-1.1s-0.3-0.2-0.6-0.4
	c-0.3-0.1-1.1-0.6-1.8-1l-1.3-0.7l0.6-0.1c1.6-0.3,2.9,0.1,5.2,1.6c0.9,0.6,1.8,1.3,2.8,1.9c2.7,1.8,5.5,2.7,8.6,2.7
	c2.5,0,4.1-0.4,6.5-1.8c1.5-0.9,3.9-2.9,3.7-3.2c-0.1-0.1-0.6,0.1-1.1,0.4c-1.8,1-3.1,1.3-6,1.2c-2.1,0-4.1-0.3-6-1.2
	c-1.6-0.8-3.3-1.4-4.9-2c-0.6-0.3-1.3-0.4-2-0.6c-1-0.3-2.4-0.6-4.2-0.6C69.5,92.2,69.4,92.2,69.2,92.2L69.2,92.2z"/>
</svg>
