<?xml version="1.0" encoding="utf-8"?>
<!-- Generator: Adobe Illustrator 19.1.0, SVG Export Plug-In . SVG Version: 6.00 Build 0)  -->
<svg version="1.1" id="Layer_1" xmlns="http://www.w3.org/2000/svg" xmlns:xlink="http://www.w3.org/1999/xlink" x="0px" y="0px"
	 viewBox="0 0 128 128" enable-background="new 0 0 128 128" xml:space="preserve">
<path id="core" fill="#010202" d="M61.9,95.4c-1-0.4-1.5-1.1-1.8-2.2c-0.2-0.6-0.9-1.6-1.7-2.5c-0.8-0.8-1.8-2-2.3-2.7
	c-0.9-1.1-1.1-1.3-2.3-1.5c-0.7-0.2-2.8-0.3-4.7-0.3c-5,0-4.7-0.4,0.4-0.6c2.4-0.1,4.5-0.3,4.7-0.4c0.6-0.4-0.2-1.2-1.3-1.5
	c-1.8-0.4-8.5-2.7-8.4-2.8c0.1-0.1,2.1,0.3,4.7,0.9s4.7,1,4.8,1c0.1,0,0.3-0.2,0.3-0.4c0-0.2-0.8-0.7-1.8-1.3
	C50,79.9,43.3,76,43,75.5c-0.2-0.2,1.6,0.6,4,1.9c3.9,2,6.3,3,7.2,3c0.5,0-0.2-1.1-2-3.3c-6.5-7.7-7.4-9.7-7.1-16.3
	c0.2-5.1,0.6-8.1,1.7-11.6l0.9-3l-0.6-1.4c-0.4-0.8-0.8-1.6-1.1-1.9c-0.5-0.6-1.5-0.5-1.8,0.1c-0.6,1.2-0.1,6.2,0.9,8.1
	c0.2,0.4,0.3,1,0.3,1.4c-0.1,0.6-0.1,0.5-0.8-0.6c-1.9-3.6-2.8-8.3-2.1-11c0.4-1.8,1.6-3,3-3c1.2,0,1.5,0.3,3.6,3.2
	c1.1,1.5,1.7,1.7,3.7,1.2c8-2.2,14.9-2.3,21.7-0.3c2.8,0.8,3.2,0.8,4.3-0.4c0.5-0.6,1-1.1,1-1.2c0-0.1,0.4-0.7,1-1.3
	c0.8-0.9,1.2-1.1,1.9-1.1c2.3,0,3.4,1.8,3.3,5.7c0,2.2-0.1,2.7-1,5.1c-0.5,1.5-1.2,3.1-1.5,3.7l-0.5,1l0-1c0-0.5,0.2-1,0.3-1.3
	c0.2-0.7,1.2-4,1.2-5.7c0-2.1-0.2-2.7-0.9-2.8c-0.8-0.2-1.6,0.6-2.3,2.2c-0.6,1.4-0.6,1.6,0.5,4.9c1.1,3.3,1.8,9.5,1.6,13.4
	c-0.2,4.7-1.1,6.6-6.6,13.3c-2.1,2.5-2.9,3.7-2.7,3.8c0.3,0.3,3-0.7,6.8-2.6c2.4-1.2,4.4-2.2,4.5-2.2c0.5,0-0.7,0.7-5.2,3.3
	c-6.6,3.7-6.3,3.5-6,3.8c0.2,0.2,1.7-0.1,4.8-0.7c2.5-0.5,4.6-1,4.7-0.9c0.1,0.1-4.9,1.8-7.5,2.6c-1.1,0.3-1.9,0.7-2.1,1.1l-0.4,0.5
	l4,0.3c2.2,0.2,4.4,0.3,4.9,0.3c0.5,0,0.9,0.1,0.8,0.2c-0.1,0.1-2.2,0.3-4.6,0.3c-2.4,0.1-4.7,0.3-5.1,0.4c-0.4,0.1-1.1,0.9-1.7,1.7
	c-0.6,0.8-1.5,1.9-2.1,2.6c-0.6,0.6-1.3,1.7-1.6,2.4c-0.7,1.8-1.4,2.2-3.7,2.3C63.3,95.7,62.4,95.6,61.9,95.4L61.9,95.4z M69.7,74
	c1.1-1,2.3-1.2,3.2-1.2c1.1,0,2.3-0.5,3.2-1.5c1.3-1.4,1-4.5-0.5-5.2C75.3,66,75,65.7,75,65.6c0-0.1,0.4-1,1-1.9
	c0.5-0.9,1-1.9,1.1-2.2c0.2-0.6,0.2-0.6-0.3,0c-1.5,1.9-4.5,6.9-7.6,12.6c-0.7,1.3-0.7,1.4-0.2,0.7C69.3,74.5,69.6,74.1,69.7,74
	L69.7,74z M58,71.9C55.8,68,53.4,64,52,62c-1.2-1.6-1-0.8,0.3,1.5c0.5,0.9,0.9,1.8,0.9,1.9s-0.3,0.4-0.6,0.5c-0.9,0.4-1.4,1.6-1.3,3
	c0.2,2.2,1.5,3.3,4.2,3.7c1.8,0.2,2.6,0.6,3.4,1.7c0.4,0.5,0.7,0.9,0.7,0.9C59.8,75.2,59,73.7,58,71.9L58,71.9z M31.9,38.2
	c0.5,0,0.9,0.4,0.9,0.9S32.4,40,31.9,40c-0.5,0-0.9-0.4-0.9-0.9S31.4,38.2,31.9,38.2z M96.8,38.5c0.5,0,0.9,0.4,0.9,0.9
	c0,0.5-0.4,0.9-0.9,0.9c-0.5,0-0.9-0.4-0.9-0.9C95.9,38.9,96.3,38.5,96.8,38.5z M32.3,34.6l4-3.5l0.7,0.8l-1.5,1.3l2.2,2.4l-1.1,0.9
	l-2.2-2.4L33,35.4L32.3,34.6z M36.9,30.4l1.2-0.8l0.9,1.3l2.5-1.7l-0.9-1.3l1.2-0.8l2.5,3.6L43,31.5l-0.9-1.3l-2.5,1.7l0.9,1.3
	L39.4,34L36.9,30.4L36.9,30.4z M42.8,26.5l4.4-2.2l0.4,0.9l-3.2,1.6l0.3,0.6l3-1.5l0.4,0.9l-3,1.5l0.3,0.6l3.2-1.6l0.5,0.9l-4.4,2.2
	L42.8,26.5L42.8,26.5z M49.8,23.2l4.5-1.3l0.3,1l-3.2,0.9l0.2,0.8l3-0.9l0.3,1l-3,0.9l0.4,1.5L51,27.5L49.8,23.2L49.8,23.2z
	 M55.3,21.8l1.3-0.2l0.2,2c0.1,0.5,0.1,0.7,0.1,0.9c0.1,0.2,0.2,0.3,0.5,0.3c0.2,0,0.6,0,1-0.1c0.5-0.1,0.8-0.1,1-0.2
	c0.3-0.1,0.4-0.3,0.4-0.5c0-0.2,0-0.5,0-0.8l-0.2-2l1.3-0.2l0.2,2c0.1,0.7,0.1,1.2,0.1,1.4c0,0.4-0.2,0.7-0.4,0.9
	c-0.2,0.2-0.6,0.3-1.1,0.4c-0.2,0-0.6,0.1-1.1,0.1c-0.7,0.1-1.3,0.1-1.6,0.1c-0.2,0-0.4,0-0.6-0.1c-0.2,0-0.3-0.1-0.4-0.2
	c-0.2-0.1-0.3-0.3-0.3-0.5c-0.1-0.2-0.1-0.5-0.2-0.9l-0.1-0.6L55.3,21.8L55.3,21.8z M62.2,21.1l4.9,0.1l0,1l-3.6-0.1l0,0.6l3.4,0.1
	l0,1l-3.4-0.1l0,0.7l3.6,0.1l0,1.1l-4.9-0.1L62.2,21.1L62.2,21.1z M68.1,21.3l1.4,0.2L69,24.8l3.1,0.4l-0.2,1.1l-4.5-0.7L68.1,21.3z
	 M73.8,26.7l1.3-4.2l3.1,1c0.7,0.2,1.2,0.4,1.3,0.4c0.1,0.1,0.3,0.2,0.4,0.3c0.1,0.1,0.2,0.2,0.2,0.4c0,0.1,0,0.3,0,0.4
	c0,0.2-0.1,0.4-0.2,0.6c-0.1,0.3-0.2,0.6-0.3,0.7c-0.1,0.2-0.3,0.3-0.5,0.3c-0.1,0-0.2,0-0.3,0c0.3,0.1,0.4,0.3,0.5,0.4
	c0,0.1,0,0.2,0,0.2s0,0.2-0.1,0.4c0,0.1-0.1,0.2-0.2,0.5L79,28.4L77.7,28l0.1-0.2c0.1-0.3,0.1-0.4,0.1-0.5c0-0.2,0-0.3-0.2-0.4
	c-0.1,0-0.3-0.1-0.5-0.2l-1.8-0.6l-0.4,1.1L73.8,26.7L73.8,26.7z M75.8,25.1l1.8,0.6c0.3,0.1,0.4,0.1,0.5,0.1c0.2,0,0.3,0,0.4-0.1
	c0.1-0.1,0.1-0.2,0.2-0.3c0-0.1,0.1-0.3,0.1-0.3c0-0.1-0.1-0.2-0.3-0.3c-0.1,0-0.2-0.1-0.5-0.2L76.1,24L75.8,25.1z M83.7,30.8V30
	l-2.6-1.3l-0.7,0.5l-1.4-0.7l4.1-2.9l1.9,0.9l0.1,5L83.7,30.8L83.7,30.8z M83.7,28.9v-1.9L83.5,27L82,28L83.7,28.9L83.7,28.9z
	 M87,27.5l4.4,3.1l-0.6,0.9l-1.6-1.1l-1.9,2.7l-1.2-0.8l1.9-2.7l-1.6-1.1L87,27.5L87,27.5z M90,33.4l1,0.9c-0.2,0.2-0.2,0.3-0.2,0.4
	c0,0.1,0,0.1,0.1,0.2c0,0,0.1,0.1,0.2,0.2c0.1,0.1,0.2,0.2,0.5,0.5c0.4,0.4,0.7,0.6,0.7,0.7c0.1,0.1,0.2,0.2,0.3,0.2
	c0.1,0,0.2,0,0.3-0.2C93,36.1,93,36.1,93,36c0-0.1-0.1-0.2-0.3-0.4c-0.1-0.1-0.4-0.4-0.7-0.7c-0.4-0.4-0.6-0.6-0.8-0.7
	c-0.3-0.3-0.5-0.5-0.6-0.7c-0.1-0.2-0.1-0.5,0.1-0.7c0.1-0.1,0.2-0.3,0.4-0.5c0.3-0.4,0.6-0.6,0.9-0.6c0.2,0,0.4,0.1,0.7,0.2
	c0.2,0.1,0.7,0.5,1.4,1.2c0.5,0.4,0.8,0.7,1,0.9c0.2,0.3,0.4,0.5,0.4,0.7c0,0.3-0.1,0.6-0.4,0.9c0,0-0.1,0.1-0.2,0.2l-1-0.9
	c0.1-0.1,0.1-0.1,0.1-0.2c0.1-0.1,0-0.2-0.1-0.4c-0.1-0.1-0.4-0.4-0.8-0.7c-0.4-0.4-0.7-0.6-0.8-0.6c-0.1-0.1-0.2,0-0.3,0.1
	C92,33.1,92,33.2,92,33.3s0.4,0.4,1,1c0.5,0.5,0.9,0.9,1,1c0.1,0.2,0.2,0.3,0.3,0.4c0.1,0.1,0.1,0.3,0,0.4c0,0.2-0.2,0.4-0.4,0.7
	c-0.3,0.3-0.5,0.5-0.8,0.6c-0.2,0.1-0.4,0.1-0.7-0.1s-0.8-0.5-1.6-1.3c-0.5-0.4-0.9-0.8-1.1-1c-0.3-0.3-0.4-0.5-0.4-0.7
	c0-0.2,0-0.4,0.2-0.6c0.1-0.1,0.2-0.2,0.3-0.3L90,33.4L90,33.4z M64,18.6c-25.1,0-45.4,20.3-45.4,45.4s20.3,45.4,45.4,45.4l0,0
	c25.1,0,45.4-20.3,45.4-45.4S89.1,18.6,64,18.6z M64,20c24.3,0,44,19.7,44,44s-19.7,44-44,44S20,88.3,20,64S39.7,20,64,20z M64,26.5
	c-20.8,0-37.6,16.8-37.6,37.6c0,20.8,16.8,37.6,37.6,37.6c20.8,0,37.6-16.8,37.6-37.6C101.6,43.3,84.8,26.5,64,26.5z M64,27.8
	c20.1,0,36.3,16.3,36.3,36.3S84.1,100.4,64,100.4l0,0c-20.1,0-36.3-16.3-36.3-36.3l0,0C27.7,44,44,27.8,64,27.8L64,27.8z M25.7,48.6
	l-0.5,1.1c-0.2-0.1-0.3-0.1-0.4-0.2c-0.3-0.1-0.4-0.3-0.5-0.4c-0.1-0.2-0.2-0.4-0.1-0.6c0.1-0.3,0.3-0.8,0.6-1.4
	c0.4-0.7,0.6-1.2,0.7-1.4c0.1-0.2,0.3-0.4,0.4-0.5s0.2-0.2,0.3-0.2c0.2-0.1,0.3-0.1,0.5,0c0.2,0.1,0.6,0.2,1.1,0.5
	c0.5,0.3,0.8,0.4,1,0.5c0.2,0.2,0.4,0.4,0.4,0.6c0,0.2,0,0.4-0.1,0.7c-0.1,0.3-0.4,0.8-0.7,1.6c-0.2,0.4-0.4,0.7-0.5,0.9
	c-0.2,0.3-0.3,0.4-0.5,0.5c-0.2,0.1-0.4,0.1-0.6,0.1c-0.2,0-0.3-0.1-0.5-0.2c0,0-0.1-0.1-0.2-0.1l0.5-1.1c0.1,0,0.2,0.1,0.2,0.1
	c0.1,0,0.2,0,0.3,0c0.1-0.1,0.3-0.4,0.6-1c0.2-0.4,0.3-0.6,0.4-0.8c0.1-0.2,0-0.3-0.1-0.4c-0.1-0.1-0.3-0.2-0.6-0.4
	c-0.3-0.2-0.5-0.2-0.6-0.3c-0.2,0-0.3,0-0.4,0.2c-0.1,0.1-0.2,0.4-0.4,0.8c-0.2,0.4-0.3,0.7-0.4,0.8c-0.1,0.2,0,0.3,0,0.3
	C25.4,48.5,25.5,48.5,25.7,48.6z M26.7,53.5c-0.2,0.8-0.4,1.3-0.5,1.6c-0.2,0.4-0.5,0.6-0.9,0.6c-0.3,0-0.7-0.1-1.3-0.3
	c-0.6-0.2-1-0.3-1.2-0.4c-0.3-0.2-0.5-0.5-0.4-1c0-0.3,0.2-0.9,0.4-1.7c0.2-0.8,0.4-1.4,0.5-1.7c0.2-0.4,0.5-0.6,0.9-0.6
	c0.3,0,0.7,0.1,1.3,0.3c0.6,0.2,1,0.3,1.2,0.4c0.3,0.2,0.5,0.5,0.4,1C27.1,52.1,27,52.6,26.7,53.5L26.7,53.5z M25.8,53.1
	c0.2-0.6,0.3-0.9,0.3-1.1c0-0.2-0.1-0.3-0.2-0.4s-0.4-0.2-0.7-0.3c-0.2-0.1-0.4-0.1-0.5-0.1c-0.2,0-0.4,0.1-0.4,0.3
	c-0.1,0.2-0.2,0.5-0.3,1c-0.1,0.5-0.2,0.8-0.3,1c0,0.2,0,0.4,0.2,0.5c0.1,0.1,0.3,0.1,0.5,0.2c0.3,0.1,0.5,0.1,0.6,0.1
	c0.2,0,0.3,0,0.4-0.1c0.1-0.1,0.2-0.2,0.3-0.5C25.6,53.8,25.6,53.5,25.8,53.1z M25.9,56.4l-0.2,1.2l-2.9-0.5l-0.4,2.7l-1-0.2l0.6-4
	L25.9,56.4L25.9,56.4z M25.2,60.6l0,1.3l-2.9-0.1l-0.1,2.8l-1,0l0.1-4L25.2,60.6L25.2,60.6z M25.3,67.6c0.1,0.8,0.1,1.4,0.1,1.7
	c0,0.5-0.2,0.8-0.6,0.9c-0.3,0.1-0.7,0.2-1.3,0.2s-1,0-1.3,0c-0.4-0.1-0.6-0.3-0.7-0.8c-0.1-0.3-0.1-0.9-0.2-1.7
	c-0.1-0.8-0.1-1.4-0.1-1.7c0-0.5,0.2-0.8,0.6-0.9c0.3-0.1,0.7-0.2,1.3-0.2s1.1,0,1.3,0c0.4,0.1,0.6,0.3,0.7,0.8
	C25.2,66.1,25.2,66.7,25.3,67.6L25.3,67.6z M24.3,67.6c0-0.6-0.1-1-0.1-1.1c-0.1-0.2-0.2-0.2-0.3-0.3c-0.1,0-0.4,0-0.8,0
	c-0.2,0-0.4,0-0.5,0.1c-0.2,0.1-0.3,0.2-0.3,0.4c0,0.2,0,0.5,0,1c0,0.5,0.1,0.8,0.1,1c0,0.2,0.2,0.4,0.4,0.4c0.1,0,0.3,0,0.5,0
	c0.3,0,0.5,0,0.6-0.1c0.2,0,0.3-0.1,0.4-0.2c0.1-0.1,0.1-0.3,0.1-0.5C24.3,68.3,24.3,68,24.3,67.6L24.3,67.6z M24.1,74.6l0.3,1.2
	c-0.2,0-0.3,0.1-0.4,0.1c-0.3,0.1-0.5,0.1-0.7,0c-0.2-0.1-0.4-0.2-0.5-0.4c-0.1-0.3-0.3-0.7-0.4-1.4c-0.2-0.8-0.3-1.3-0.3-1.5
	c0-0.3,0-0.4,0-0.6c0-0.2,0.1-0.3,0.1-0.4c0.1-0.2,0.2-0.3,0.4-0.3c0.2-0.1,0.6-0.2,1.1-0.3c0.5-0.1,0.9-0.2,1.1-0.2
	c0.3,0,0.5,0,0.7,0.2c0.1,0.1,0.2,0.3,0.4,0.6c0.1,0.3,0.3,0.9,0.4,1.7c0.1,0.5,0.2,0.8,0.2,1c0,0.3,0,0.5,0,0.7
	c-0.1,0.2-0.2,0.4-0.4,0.4c-0.1,0.1-0.3,0.1-0.5,0.2c0,0-0.1,0-0.2,0L25,74.4c0.1,0,0.2,0,0.2-0.1c0.1,0,0.2-0.1,0.2-0.2
	c0-0.1,0-0.5-0.2-1.1c-0.1-0.4-0.2-0.7-0.2-0.8c-0.1-0.2-0.2-0.3-0.4-0.3c-0.2,0-0.4,0-0.7,0.1c-0.3,0.1-0.5,0.1-0.7,0.2
	c-0.2,0.1-0.2,0.2-0.2,0.4c0,0.2,0.1,0.4,0.2,0.9c0.1,0.4,0.2,0.7,0.2,0.9c0.1,0.2,0.1,0.2,0.2,0.3C23.7,74.7,23.9,74.7,24.1,74.6
	L24.1,74.6z M24.7,80.8l0.5-0.6l-1-2.4l-0.7-0.1l-0.5-1.3l4.4,0.5l0.7,1.7l-2.9,3.3L24.7,80.8L24.7,80.8z M25.8,79.6l1.1-1.3
	l-0.1-0.2L25.1,78L25.8,79.6L25.8,79.6z M25.4,82.6l3.4-1.9l1.4,2.5c0.3,0.6,0.5,0.9,0.6,1.1c0.1,0.1,0.1,0.3,0.1,0.4
	c0,0.1,0,0.3-0.1,0.4c-0.1,0.1-0.2,0.2-0.3,0.3c-0.1,0.1-0.3,0.2-0.4,0.3c-0.3,0.2-0.5,0.3-0.6,0.3c-0.2,0-0.4,0-0.5-0.1
	c-0.1,0-0.1-0.1-0.2-0.2c0.1,0.2,0.1,0.4,0.1,0.6c0,0.1-0.1,0.1-0.1,0.2c-0.1,0.1-0.1,0.1-0.3,0.2c-0.1,0-0.2,0.1-0.4,0.2l-0.3,0.2
	l-0.6-1l0.2-0.1c0.2-0.1,0.4-0.2,0.4-0.3c0.1-0.1,0.2-0.2,0.1-0.3c0-0.1-0.1-0.2-0.2-0.5l-0.8-1.5L26,83.7L25.4,82.6L25.4,82.6z
	 M27.7,82.7l0.8,1.5c0.1,0.2,0.2,0.4,0.2,0.4c0.1,0.1,0.2,0.2,0.3,0.2c0.1,0,0.2,0,0.3-0.1c0.1-0.1,0.2-0.1,0.2-0.2
	c0.1-0.1,0.1-0.2,0-0.3c0,0-0.1-0.2-0.2-0.4l-0.8-1.5L27.7,82.7L27.7,82.7z M31.4,85.3l2.5,3.5l-0.7,0.5l-1.8-2.6l-0.4,0.3l1.7,2.4
	L31.9,90l-1.7-2.4L29.7,88l1.8,2.6l-0.8,0.5l-2.5-3.5L31.4,85.3L31.4,85.3z M37.1,92.1c0.6,0.6,1,1,1.2,1.2c0.3,0.4,0.3,0.7,0.2,1.1
	c-0.1,0.2-0.4,0.6-0.8,1c-0.4,0.4-0.7,0.7-1,0.9c-0.3,0.2-0.7,0.2-1.1-0.1c-0.3-0.2-0.7-0.6-1.3-1.2s-1-1-1.2-1.3
	c-0.3-0.4-0.3-0.7-0.2-1.1c0.1-0.2,0.4-0.6,0.8-1c0.4-0.4,0.8-0.7,1-0.9c0.3-0.2,0.7-0.2,1.1,0.1C36,91.1,36.4,91.5,37.1,92.1
	L37.1,92.1z M36.3,92.8c-0.4-0.4-0.7-0.7-0.8-0.7c-0.1-0.1-0.3-0.1-0.4,0c-0.1,0.1-0.3,0.2-0.6,0.5c-0.2,0.2-0.3,0.3-0.3,0.4
	c-0.1,0.2-0.1,0.4,0.1,0.5c0.1,0.1,0.4,0.4,0.7,0.7c0.4,0.4,0.6,0.6,0.8,0.7c0.2,0.2,0.4,0.2,0.5,0.1c0.1-0.1,0.2-0.2,0.4-0.3
	c0.2-0.2,0.3-0.4,0.4-0.4c0.1-0.2,0.2-0.3,0.1-0.4c0-0.1-0.1-0.3-0.3-0.4C36.8,93.3,36.6,93.1,36.3,92.8z M40.8,98.2l1,0.7
	c-0.1,0.2-0.2,0.3-0.2,0.3c-0.2,0.2-0.3,0.4-0.5,0.5c-0.2,0.1-0.4,0.1-0.6,0c-0.3-0.1-0.7-0.4-1.3-0.7c-0.6-0.4-1.1-0.7-1.3-0.9
	c-0.2-0.2-0.3-0.3-0.4-0.4c-0.1-0.1-0.2-0.2-0.2-0.4c0-0.2,0-0.4,0.1-0.5c0.1-0.2,0.3-0.5,0.6-1c0.3-0.5,0.5-0.8,0.7-0.9
	c0.2-0.2,0.4-0.3,0.6-0.3c0.2,0,0.4,0.1,0.7,0.2c0.3,0.2,0.8,0.4,1.5,0.9c0.4,0.3,0.7,0.5,0.9,0.6c0.2,0.2,0.4,0.4,0.5,0.5
	c0.1,0.2,0.1,0.4,0,0.6c-0.1,0.1-0.1,0.3-0.3,0.5c0,0-0.1,0.1-0.1,0.2l-1-0.7c0.1-0.1,0.1-0.1,0.1-0.2c0.1-0.1,0.1-0.2,0-0.3
	c-0.1-0.1-0.4-0.4-0.9-0.7c-0.3-0.2-0.6-0.4-0.7-0.4c-0.2-0.1-0.3-0.1-0.5,0.1c-0.1,0.1-0.3,0.3-0.4,0.5c-0.2,0.3-0.3,0.5-0.4,0.6
	c-0.1,0.2,0,0.3,0.2,0.4c0.1,0.1,0.4,0.3,0.7,0.5c0.4,0.3,0.6,0.4,0.8,0.5c0.1,0.1,0.3,0.1,0.3,0C40.6,98.4,40.7,98.3,40.8,98.2
	L40.8,98.2z M45.6,101l1,0.6c-0.1,0.2-0.1,0.3-0.2,0.4c-0.1,0.3-0.3,0.4-0.4,0.5c-0.2,0.1-0.4,0.1-0.6,0.1c-0.3-0.1-0.7-0.3-1.4-0.6
	c-0.7-0.4-1.1-0.6-1.4-0.8c-0.2-0.1-0.4-0.3-0.5-0.4c-0.1-0.1-0.2-0.2-0.2-0.4c-0.1-0.2,0-0.3,0-0.5c0.1-0.2,0.2-0.5,0.5-1.1
	c0.3-0.5,0.5-0.8,0.6-1c0.2-0.2,0.4-0.4,0.6-0.4c0.2,0,0.4,0,0.7,0.1c0.3,0.1,0.8,0.4,1.5,0.8c0.4,0.2,0.7,0.4,0.9,0.5
	c0.3,0.2,0.4,0.4,0.5,0.5c0.1,0.2,0.1,0.4,0.1,0.6c0,0.2-0.1,0.3-0.2,0.5c0,0-0.1,0.1-0.1,0.2l-1-0.6c0-0.1,0.1-0.1,0.1-0.2
	c0-0.1,0-0.2,0-0.3c-0.1-0.1-0.4-0.3-0.9-0.6c-0.4-0.2-0.6-0.3-0.8-0.4c-0.2-0.1-0.3,0-0.5,0.1c-0.1,0.1-0.2,0.3-0.4,0.6
	c-0.2,0.3-0.3,0.5-0.3,0.6c0,0.2,0,0.3,0.2,0.4c0.1,0.1,0.4,0.3,0.8,0.4c0.4,0.2,0.7,0.4,0.8,0.4c0.1,0.1,0.3,0.1,0.4,0
	C45.5,101.3,45.6,101.2,45.6,101L45.6,101z M50.6,104.8l-0.1-0.7l-2.4-0.9l-0.5,0.5l-1.3-0.5l3.3-2.9l1.7,0.7l0.5,4.4L50.6,104.8z
	 M50.5,103.2l-0.2-1.7l-0.2-0.1l-1.2,1.1L50.5,103.2z M52.6,104.1l1.1,0.3c0,0.2,0,0.3,0,0.4c0,0,0.1,0.1,0.1,0.1
	c0.1,0,0.1,0.1,0.3,0.1c0.1,0,0.3,0.1,0.6,0.2c0.5,0.1,0.8,0.2,0.9,0.2c0.2,0,0.3,0,0.3,0c0.1,0,0.1-0.1,0.2-0.3c0-0.1,0-0.2,0-0.2
	c0-0.1-0.2-0.1-0.4-0.2c-0.1,0-0.4-0.1-0.9-0.3c-0.5-0.1-0.8-0.2-0.9-0.3c-0.4-0.1-0.6-0.2-0.7-0.3c-0.2-0.1-0.3-0.3-0.3-0.6
	c0-0.1,0-0.3,0.1-0.5c0.1-0.4,0.3-0.7,0.5-0.9c0.2-0.1,0.4-0.2,0.6-0.1c0.2,0,0.8,0.1,1.6,0.3c0.5,0.1,0.9,0.2,1.2,0.3
	c0.3,0.1,0.5,0.2,0.6,0.4c0.1,0.2,0.2,0.5,0.1,0.9c0,0,0,0.1,0,0.2l-1.1-0.3c0-0.1,0-0.2,0-0.2c0-0.1-0.1-0.2-0.2-0.2
	c-0.1,0-0.4-0.1-0.9-0.2c-0.5-0.1-0.8-0.2-0.9-0.2c-0.1,0-0.2,0.1-0.2,0.2c0,0.1,0,0.2,0.1,0.3c0.1,0,0.5,0.2,1.2,0.4
	c0.7,0.2,1.1,0.3,1.3,0.4s0.3,0.2,0.4,0.2s0.2,0.2,0.2,0.3c0.1,0.2,0.1,0.4,0,0.8c-0.1,0.4-0.2,0.6-0.3,0.8
	c-0.1,0.2-0.3,0.2-0.6,0.2c-0.2,0-0.8-0.1-1.8-0.3c-0.6-0.1-1-0.3-1.3-0.4c-0.3-0.1-0.5-0.2-0.6-0.4c-0.1-0.2-0.2-0.3-0.2-0.5
	c0-0.1,0-0.2,0.1-0.4L52.6,104.1L52.6,104.1z M58.3,102.7l1.2,0.2l-0.5,3.9l-1.2-0.2L58.3,102.7L58.3,102.7z M62.8,103.1
	c0.8,0,1.4,0.1,1.7,0.1c0.4,0.1,0.7,0.3,0.8,0.7c0.1,0.3,0.1,0.7,0,1.3c0,0.6-0.1,1-0.2,1.3c-0.1,0.4-0.4,0.6-0.9,0.6
	c-0.3,0-0.9,0-1.7,0c-0.8,0-1.4-0.1-1.7-0.1c-0.4-0.1-0.7-0.3-0.8-0.7c-0.1-0.3-0.1-0.7,0-1.3c0-0.6,0.1-1,0.2-1.3
	c0.1-0.4,0.4-0.6,0.9-0.6C61.3,103,61.9,103,62.8,103.1z M62.7,104.1c-0.6,0-1,0-1.1,0c-0.2,0-0.3,0.1-0.3,0.3
	c0,0.1-0.1,0.4-0.1,0.8c0,0.2,0,0.4,0,0.5c0,0.2,0.2,0.3,0.4,0.4c0.2,0,0.5,0.1,1,0.1s0.8,0,1,0c0.2,0,0.4-0.1,0.4-0.3
	c0-0.1,0.1-0.3,0.1-0.5c0-0.3,0-0.5,0-0.6c0-0.2-0.1-0.3-0.2-0.4c-0.1-0.1-0.3-0.1-0.5-0.1C63.4,104.1,63.1,104.1,62.7,104.1
	L62.7,104.1z M65.6,103.2l2.1-0.3l2.4,2.6l0.1,0l-0.4-2.9l1.2-0.1l0.5,3.9l-2.1,0.3l-2.4-2.7l-0.1,0l0.4,2.9l-1.2,0.1L65.6,103.2
	L65.6,103.2z M71.4,102.4l4.2-1.1l0.2,0.9l-3,0.8l0.1,0.5l2.9-0.8l0.2,0.8l-2.9,0.8l0.2,0.6l3.1-0.8l0.2,0.9l-4.2,1.1L71.4,102.4
	L71.4,102.4z M75.9,101.3l2-0.8l2,1.9l0.1-2.8l2-0.8l1.5,3.6l-1.1,0.4l-1.1-2.7l-0.2,0.1l-0.3,3.3l-0.9,0.4l-2.5-2.1l-0.2,0.1
	l1.1,2.7l-1.1,0.4L75.9,101.3L75.9,101.3z M83.7,97.6l1-0.7l1.6,2.4l2.3-1.6l0.6,0.8l-3.3,2.3L83.7,97.6L83.7,97.6z M87.4,95.1
	l1-0.8l2.4,3.1l-1,0.8L87.4,95.1L87.4,95.1z M91.5,96.9L88.9,94l2.1-1.9c0.4-0.4,0.7-0.6,0.8-0.7c0.2-0.2,0.4-0.3,0.5-0.3
	c0.2,0,0.3,0,0.4,0.1s0.3,0.2,0.4,0.3c0.2,0.2,0.3,0.3,0.3,0.4c0.1,0.2,0,0.4-0.1,0.6c0.2-0.1,0.3-0.2,0.4-0.2
	c0.2,0,0.5,0.1,0.8,0.4c0.2,0.2,0.3,0.4,0.4,0.6c0,0.2,0,0.3-0.1,0.5c-0.1,0.1-0.3,0.3-0.5,0.6l-0.6,0.5L91.5,96.9L91.5,96.9z
	 M90.8,94.4l1.2-1.1c0.3-0.3,0.4-0.4,0.4-0.5c0-0.1,0-0.2-0.1-0.3c-0.1-0.1-0.2-0.1-0.3-0.1c0,0-0.2,0.2-0.5,0.4L90.4,94L90.8,94.4
	L90.8,94.4z M91.7,95.5l1.3-1.1c0.2-0.2,0.4-0.3,0.4-0.4c0.1-0.1,0.2-0.2,0.2-0.3c0-0.1,0-0.1-0.1-0.2c-0.1-0.1-0.2-0.2-0.3-0.1
	c0,0-0.2,0.2-0.6,0.5L91.3,95L91.7,95.5L91.7,95.5z M92.7,90.5l2.8-3.3l0.7,0.6l-2.1,2.4l0.4,0.4l2-2.3l0.6,0.6l-2,2.3l0.5,0.4
	l2.1-2.4l0.7,0.6L95.7,93L92.7,90.5L92.7,90.5z M99,89.1L95.7,87l1.5-2.4c0.4-0.6,0.6-0.9,0.7-1c0.1-0.1,0.2-0.2,0.3-0.3
	c0.1-0.1,0.2-0.1,0.4-0.1c0.1,0,0.3,0,0.4,0.1c0.1,0.1,0.3,0.2,0.4,0.3c0.3,0.2,0.4,0.3,0.5,0.4c0.1,0.2,0.2,0.3,0.1,0.5
	c0,0.1,0,0.2-0.1,0.3c0.2-0.2,0.3-0.3,0.5-0.3c0.1,0,0.1,0,0.2,0c0.1,0,0.2,0.1,0.3,0.1c0.1,0,0.2,0.1,0.4,0.2l0.3,0.2l-0.6,1
	l-0.2-0.1c-0.2-0.1-0.4-0.2-0.4-0.2c-0.1-0.1-0.3,0-0.3,0.1c-0.1,0.1-0.2,0.2-0.3,0.4l-0.9,1.4l0.8,0.5L99,89.1L99,89.1z M98,87
	l0.9-1.4c0.1-0.2,0.2-0.3,0.2-0.4c0.1-0.2,0.1-0.3,0-0.4c0-0.1-0.1-0.1-0.3-0.2c-0.1-0.1-0.2-0.1-0.3-0.1c-0.1,0-0.2,0-0.3,0.2
	c0,0-0.1,0.2-0.3,0.4l-0.9,1.4L98,87L98,87z M103.6,80.4l-0.7,0.1l-1,2.4l0.5,0.6l-0.5,1.3L99,81.2l0.7-1.7l4.4-0.4L103.6,80.4z
	 M101.9,80.5l-1.7,0.1l-0.1,0.2l1.1,1.3L101.9,80.5z M104.3,78.5l-3.8-1.1l0.8-2.7c0.2-0.6,0.3-0.9,0.3-1c0.1-0.2,0.2-0.4,0.3-0.5
	c0.1-0.1,0.3-0.2,0.4-0.2c0.2,0,0.3,0,0.5,0.1c0.2,0.1,0.4,0.1,0.5,0.2c0.2,0.1,0.2,0.3,0.2,0.5c0.1-0.2,0.2-0.3,0.2-0.3
	c0.2-0.2,0.5-0.2,0.9,0c0.3,0.1,0.5,0.2,0.6,0.3c0.1,0.1,0.2,0.3,0.2,0.5c0,0.2-0.1,0.4-0.2,0.8l-0.2,0.7L104.3,78.5L104.3,78.5z
	 M102.3,76.8l0.5-1.6c0.1-0.4,0.2-0.6,0.1-0.6c0-0.1-0.1-0.2-0.2-0.2c-0.2,0-0.3,0-0.3,0.1c0,0-0.1,0.2-0.2,0.6l-0.5,1.6L102.3,76.8
	L102.3,76.8z M103.7,77.2l0.5-1.6c0.1-0.3,0.1-0.5,0.2-0.5c0-0.2,0-0.3,0-0.4c0,0-0.1-0.1-0.2-0.1c-0.2,0-0.3,0-0.3,0.1
	c0,0-0.1,0.3-0.2,0.7l-0.5,1.6L103.7,77.2L103.7,77.2z M102,72.3l0.2-1.2l1.8,0.3c0.4,0.1,0.7,0.1,0.8,0.1c0.2,0,0.3-0.1,0.4-0.3
	c0.1-0.2,0.1-0.5,0.2-0.9s0.1-0.7,0.1-0.9c0-0.3-0.1-0.4-0.4-0.5c-0.2-0.1-0.4-0.1-0.7-0.2l-1.8-0.3l0.2-1.2l1.8,0.3
	c0.6,0.1,1,0.2,1.2,0.3c0.3,0.1,0.5,0.3,0.6,0.6c0.1,0.2,0.1,0.5,0,1c0,0.2-0.1,0.5-0.2,1c-0.1,0.7-0.2,1.1-0.3,1.4
	c-0.1,0.2-0.1,0.4-0.2,0.5c-0.1,0.1-0.2,0.2-0.3,0.3c-0.2,0.1-0.3,0.1-0.5,0.1c-0.2,0-0.5,0-0.8-0.1l-0.5-0.1L102,72.3L102,72.3z
	 M103,67.2l0-2.1l2.9-2.1v-0.1l-2.9,0.1l0-1.2l3.9,0l0,2.1l-2.9,2.1V66l2.9-0.1l0,1.2L103,67.2L103,67.2z M102.8,61.5l-0.5-4.7
	l1-0.1l0.2,1.7l2.9-0.3l0.1,1.3l-2.9,0.3l0.2,1.7L102.8,61.5L102.8,61.5z M102.4,56.7l-0.3-1.2l1.7-0.5c0.4-0.1,0.6-0.2,0.7-0.3
	c0.2-0.1,0.2-0.2,0.2-0.5c0-0.2-0.1-0.5-0.2-0.9c-0.1-0.4-0.2-0.7-0.3-0.9c-0.1-0.2-0.3-0.3-0.5-0.3c-0.2,0-0.4,0.1-0.7,0.2
	l-1.7,0.5l-0.3-1.2l1.7-0.5c0.6-0.2,1-0.2,1.2-0.3c0.3,0,0.6,0,0.8,0.3c0.2,0.2,0.3,0.5,0.5,0.9c0.1,0.2,0.2,0.5,0.3,1
	c0.2,0.6,0.3,1.1,0.3,1.4c0,0.2,0,0.4,0,0.5c0,0.1-0.1,0.3-0.1,0.4c-0.1,0.2-0.2,0.3-0.4,0.4c-0.2,0.1-0.4,0.2-0.7,0.3l-0.5,0.1
	L102.4,56.7z M104.5,49.9l-3.6,1.5l-1.1-2.6c-0.3-0.6-0.4-1-0.4-1.1c0-0.1-0.1-0.3,0-0.4c0-0.1,0.1-0.3,0.1-0.4
	c0.1-0.1,0.2-0.2,0.3-0.3c0.1-0.1,0.3-0.2,0.5-0.2c0.3-0.1,0.5-0.2,0.6-0.2c0.2,0,0.4,0.1,0.5,0.2c0,0,0.1,0.1,0.2,0.2
	c-0.1-0.2-0.1-0.4,0-0.6c0-0.1,0.1-0.1,0.1-0.2c0.1,0,0.2-0.1,0.3-0.2c0.1,0,0.2-0.1,0.4-0.2l0.3-0.1l0.5,1.1l-0.2,0.1
	c-0.2,0.1-0.4,0.2-0.4,0.2c-0.1,0.1-0.2,0.2-0.1,0.3c0,0.1,0.1,0.3,0.2,0.5l0.7,1.5l0.9-0.4L104.5,49.9L104.5,49.9z M102.2,49.6
	l-0.7-1.5c-0.1-0.2-0.2-0.4-0.2-0.4c-0.1-0.2-0.2-0.2-0.3-0.2c-0.1,0-0.2,0-0.3,0.1c-0.1,0.1-0.2,0.1-0.3,0.2
	c-0.1,0.1-0.1,0.2,0,0.3c0,0.1,0.1,0.2,0.2,0.4l0.7,1.5L102.2,49.6L102.2,49.6z"/>
</svg>
